<?xml version="1.0" encoding="UTF-8"?>
<svg xmlns="http://www.w3.org/2000/svg" version="1.1" viewBox="0 0 589.4 546.4">
  <defs>
    <style>
      .cls-1 {
        fill: #fff;
      }

      .cls-2 {
        fill: #21292c;
      }

      .cls-3 {
        fill: #ff0067;
      }
    </style>
  </defs>
  <!-- Generator: Adobe Illustrator 28.7.1, SVG Export Plug-In . SVG Version: 1.2.0 Build 142)  -->
  <g>
    <g id="Laag_2">
      <g>
        <path class="cls-1" d="M270.7,523.1c2.6-1.1,1-16.4,1-18.8-.3-27.5-5.7-57.4-15.6-83.4-10.6-27.8-22.1-49.5-33.1-76.5-5.6-13.8-6.9-30.6-9.9-45.2-2.8-13.9-4.4-26.1-11.7-38.4-7-11.8-19.2-19.3-34.2-17.1-20.1,3-32.4,24.5-27.5,57.6.1.8.7,4.6.9,5.9,1.5,10.1,2,19.7,3.7,29.8.5,2.7.6,14.3.5,15.3-1.7,19.9-44.8,126.2-34.6,176.4,0,0,91.6,23.5,160.4-5.7Z"/>
        <path class="cls-1" d="M272.2,504.3c-.3-27.5-5.7-57.4-15.6-83.4-9.7-25.4-21-47.8-31.1-71.7-5,14.7-14.7,20.3-26.8,22.4-18,3.1-38.8-2.4-55-10.6-7.6,30.6-42,122.8-32.9,167.6,0,0,91.6,23.5,160.4-5.7,2.6-1.1,1-16.4,1-18.8Z"/>
        <path class="cls-2" d="M146.3,355.9c.6-2.7.5-5.4.5-8.1,0-3.5,0-7.1-.5-10.6-.8-6.2-1.7-12.4-2.4-18.6-.6-5.5-1.3-11-2.2-16.6-2.5-16.9-2.2-38.7,12.1-50.8,6.3-5.4,14.9-7.6,23-6,11.1,2.2,20.1,10.8,25.3,20.5,5.8,10.7,7.7,23.1,10,34.9,2.3,11.9,3.5,24,6.8,35.7,1.7,6.1,4.3,12,6.8,17.8,2.5,5.8,5.1,11.7,7.7,17.5,5.2,11.6,10.6,23.1,15.5,34.7,5,11.8,9.5,23.8,12.9,36.2,3.4,12.3,5.8,24.9,7.2,37.6,1.1,9.9,1.3,19.8,1.8,29.7.2,3.6.5,7.3-.1,10.8,0,.5-.2,1.1-.4,1.5,0,.1-.2.4,0,.2-.2.2-1.2.5-1.7.7-2.5,1-5.1,2-7.7,2.9-20.4,7-42,10-63.5,10.6-18.5.6-37-.6-55.3-3.1-9.9-1.3-19.8-3-29.6-5.3-.3,0-.7-.2-1-.3-.3,0-.6-.2,0,0,.2.2.4.4.7.7-2.1-10.2-1.8-20.8-.8-31.1,1.1-12.3,3.3-24.5,5.9-36.5,5.3-24.3,12.5-48.1,19.7-71.9,2.8-9.2,5.8-18.5,8.1-27.8-.9.3-1.8.7-2.7,1,2.3,1.3,4.5,2.5,6.9,3.4,4.9,1.9,10,3.6,15.1,5,8,2.1,16.3,3.5,24.6,3.3,10.5-.2,21.8-3,29.5-10.5,2.7-2.6,4.8-5.8,5.8-9.5.4-1.5-2.7-1.2-3.1.2-1.7,6.6-8.1,11.4-14.1,14-12,5.2-26,3.9-38.4,1-8.3-2-16.6-4.6-24.1-8.8-1-.5-2.4-.2-2.7,1-2,8.2-4.6,16.2-7.1,24.3-3.4,11.2-6.8,22.3-10,33.6-7,24.5-13.6,49.5-16.3,75-1.2,11.6-1.8,23.6.5,35.1,0,.3.4.6.7.7,7.2,1.8,14.5,3.2,21.8,4.3,17.4,2.8,34.9,4.4,52.5,4.7,21.9.3,44-1.6,65.3-7.2,5.4-1.4,10.8-3.1,16-5.1,1.2-.5,2.5-.9,3.7-1.4,1.1-.4,2.3-.7,3.3-1.4,1-.7,1.3-1.9,1.5-3.1.7-3.5.4-7.3.2-10.9-.2-3.8-.3-7.6-.5-11.4-.9-25.9-5.8-51.9-14.8-76.2-9.2-24.9-21.4-48.6-31.6-73-2.5-5.9-4.7-11.7-6.1-18-1.5-6.1-2.5-12.4-3.5-18.6-1-6.4-2.2-12.8-3.4-19.1-1.2-6.1-2.5-12.3-4.4-18.2-3.5-10.8-9.6-20.9-19.3-27.3-8.5-5.6-19.1-7.4-28.8-3.9-16.7,5.9-23.4,23.8-24,40.2-.4,10.9,1.9,21.6,3.1,32.4,1.2,10.4,2.9,20.6,3.1,31,0,2.8.1,5.6-.5,8.3-.3,1.5,2.8,1.2,3.1-.2h0Z"/>
        <path class="cls-2" d="M191,323.3c0-.2,0-.3-.1-.5-.3-1-.5-2-.4-3,0-1,.6-2,1.4-2.5,1.8-1,4.2.6,6.2-.1.7-.3,1.3-.8,2-1.3.6-.5,1.4-.8,2.2-.6,1.1.3,1.6,1.5,1.8,2.6,1,5.3-.4,13.3-7.4,12.7-3.9-.3-4.6-4-5.5-7.3Z"/>
        <path class="cls-2" d="M199.7,386.1c14.4,36.2,16.9,76.2,18.4,114.7.4,10.6.7,21.3,1.1,31.9,0,1.5,3.1.9,3.1-.3-1.3-38.9-1.6-78.3-10.2-116.4-2.4-10.5-5.4-20.8-9.3-30.8-.5-1.3-3.5-.4-3,.8h0Z"/>
        <path class="cls-2" d="M146.3,381.5c8.9,3.3,17.8,6.4,26.6,9.9,3.8,1.5,7.9,3.3,12,3.5,3.4.2,5.6-2.5,7.2-5.2,1.5-2.6,2.7-5.3,4.5-7.8.7-.9,1.7-2.4,2.9-2.7,1.5-.3,3.4.8,4.7,1.4,2.6,1.3,4.9,2.9,7.2,4.7,1.9,1.5,3.9,3,6.4,1.9,2.6-1.1,4.5-3.8,6.1-6,1.7-2.4,3.2-5,4.9-7.4,1.2-1.6-1.7-2.2-2.6-1-1.4,1.9-2.6,4-4,6-1.4,2.1-3,4.7-5.1,6.1-.7.5-.8.4-1.6,0-1.3-.8-2.4-1.8-3.5-2.7-2.1-1.7-4.6-3-7-4.1-2.5-1.2-5.3-1.9-7.8-.3-2.4,1.5-3.9,4.1-5.3,6.5-1.4,2.4-2.4,5.2-4.4,7.2-1.5,1.5-3.3.9-5.2.5-2.1-.5-4.1-1.2-6-2-9.4-3.6-18.9-7.1-28.4-10.6-1.4-.5-3.5,1.5-1.7,2.2h0Z"/>
        <path class="cls-2" d="M460.8,279.9c-3.3-3.6-8.9-3.8-13.4-3.3-4.6.5-9.4,1.9-10.6,6.9-1.1,4.7,1.6,10.9,7.2,8.7,6.2-2.4,2.8-9.8-.9-13-4.5-3.9-10.7-4.7-16.3-2.9-.4.1-1.2.5-.9,1,.3.5,1.6,0,2-.1,4.5-1.5,9.8.5,13.1,3.8,1.8,1.8,3.4,4.3,3.4,6.9,0,1.2-.7,4.2-2.5,3-1.1-.8-1.8-2.1-2.1-3.4-.6-2.1-.3-4.4.6-6.3,1.1-2.2,2.8-2.7,5.1-3.1,4.2-.7,9.4-.5,12.4,2.8.6.6,3.4-.4,2.8-1.1h0Z"/>
        <path class="cls-2" d="M482.4,153.6c-5,.5-8.7,3.7-11.3,7.7-1.3,2-2.8,4.5-3,6.9-.2,2.4,1.1,4.7,2.8,6.2,1.9,1.7,4.4,2.7,7,2.4,2.1-.2,4.7-1.3,5-3.7.8-6-7.9-6.6-11.8-5.8-5.8,1.1-11,4.9-12.9,10.6-.2.7,2.7.4,3-.5,1.5-4.4,5.3-8.2,10.1-9,2.5-.4,5.8,0,7.6,2,.8,1,1.4,2.5.9,3.7-.5,1.5-1.7,1.3-3,.8-2.3-.8-4.3-2.6-5.2-4.8-.9-2.1-.3-4.1.6-6.1,1.5-3.4,4.8-8.9,8.9-9.3.5,0,1.8-.2,2-.8.2-.5-.2-.7-.8-.6h0Z"/>
        <path class="cls-2" d="M334.8,184c-2.5-3.1-3.7-7.2-3.8-11.1-.1-3.6.7-8,3.8-10.3,1.7-1.2,3.7-1.3,5.7-1.1,2.8.3,6.1,1,8.1,3.3,1.9,2.2,1.6,6.2-1.9,6.4-3.4.2-6.4-2.8-8.1-5.4-4.1-6.2-4.2-14.6,0-20.7.8-1.2-2.2-1.1-2.8-.2-4.6,6.6-4.3,15.5,0,22.1,2.1,3.1,5.3,5.9,9.2,6.1,3,.2,6.6-1.2,7.7-4.3,1.2-3.4-1.9-6.5-4.8-7.7-2.9-1.3-6.5-1.9-9.7-1.5-5.2.6-8.8,4.4-9.8,9.4-1.1,5.4.2,11.9,3.7,16.2.7.9,3.6-.2,2.8-1.2h0Z"/>
        <path class="cls-2" d="M380.9,225.5c5.7-3.2,10.5-9.1,11.4-15.7.3-2,0-5.2-2.3-6-1.6-.6-3.8.3-5,1.3-2.8,2.3-4.1,7.4-1.6,10.4,2,2.4,5.8,2.5,8.7,2.1,3-.4,6-1.5,8.6-3.2,6.4-4.5,8.5-13.1,4.7-20-.4-.8-3.3.3-3,.8,2.5,4.7,2.5,10.5-.3,15-1.4,2.3-3.6,4.2-6,5.3-2.6,1.1-6.3,1.5-8.7-.1-2.9-2-2.6-6-1-8.7.4-.6.8-1.1,1.3-1.6.3-.4.5,0,0-.2-.7-.2.2.3.2.3,1.7,1.9,1.8,4.2,1.2,6.6-1.4,5.8-5.3,10.7-10.4,13.6-.6.3-.3.6.2.7.7.1,1.6-.3,2.1-.6h0Z"/>
        <path class="cls-2" d="M299.5,233c-.6-3.9-1.7-7.7-3.3-11.2-1.4-3-3.2-6.1-6.1-7.9-3.9-2.5-11.8-2.1-13.4,3.2-.6,2.1,0,4.7,1.9,6,2.1,1.4,5.2.7,7.1-.7,6-4.5.9-12.5-3.1-16.5-5.1-5.1-12-7.9-19.1-8.1-1,0-3.3,1.4-1.2,1.5,4.8.1,9.6,1.7,13.6,4.4,4,2.7,7.8,6.7,9.2,11.4.6,2.2.6,6.4-2.2,7.1-2,.5-3.2-2.2-3.3-3.8-.1-2.2,1.3-4.4,3.6-4.5,2.5-.1,4.7,1.3,6.4,3,4.1,4.4,6.1,11.1,7,17,.1.8,3.2.2,3-.8h0Z"/>
        <path class="cls-3" d="M283.2,360.1c-1.7-2.1-1.2-7,1.6-7.9,2.6-.9,6,.6,7.5,2.8,1.5,2.2,1.2,5.6-1.1,7.2-2.4,1.6-6.3,0-8-2.1Z"/>
        <path class="cls-2" d="M332.1,238.8c-1.7-2.1-1.2-7,1.6-7.9,2.6-.9,6,.6,7.5,2.8,1.5,2.2,1.2,5.6-1.1,7.2-2.4,1.6-6.3,0-8-2.1Z"/>
        <path class="cls-3" d="M477.2,232.3c-1.7-2.1-1.2-7,1.6-7.9,2.6-.9,6,.6,7.5,2.8,1.5,2.2,1.2,5.6-1.1,7.2-2.4,1.6-6.3,0-8-2.1Z"/>
        <path class="cls-3" d="M219.4,191.3c-1.7-2.1-1.2-7,1.6-7.9,2.6-.9,6,.6,7.5,2.8,1.5,2.2,1.2,5.6-1.1,7.2-2.4,1.6-6.3,0-8-2.1Z"/>
        <path class="cls-2" d="M393,318.8c-1.7-2.1-1.2-7,1.6-7.9,2.6-.9,6,.6,7.5,2.8,1.5,2.2,1.2,5.6-1.1,7.2-2.4,1.6-6.3,0-8-2.1Z"/>
        <path class="cls-2" d="M241.9,291.8c-1.7-2.1-1.2-7,1.6-7.9,2.6-.9,6,.6,7.5,2.8,1.5,2.2,1.2,5.6-1.1,7.2-2.4,1.6-6.3,0-8-2.1Z"/>
        <path class="cls-3" d="M395.6,157c-1.7-2.1-1.2-7,1.6-7.9,2.6-.9,6,.6,7.5,2.8,1.5,2.2,1.2,5.6-1.1,7.2-2.4,1.6-6.3,0-8-2.1Z"/>
        <path class="cls-2" d="M282.2,138.6c-1.7-2.1-1.2-7,1.6-7.9,2.6-.9,6,.6,7.5,2.8,1.5,2.2,1.2,5.6-1.1,7.2-2.4,1.6-6.3,0-8-2.1Z"/>
        <path class="cls-3" d="M271.5,274.6c11.1,18.8,25.7,35.5,43.2,48.7,1.2.9,3.1,1.3,4.6,1.5,3,.3,6.2-.1,9.1-.8,2.7-.6,5.2-1.4,7.7-2.5,2.3-1,4.9-2.3,6.6-4.3,10.7-12.2,22.1-24,33.9-35.1,2.9-2.8,5.9-5.5,8.9-8.2,1.5-1.3,2.9-2.6,4.4-3.9.6-.5,3.1-2.6.5-.5.9-.7,1.7-1.5,2.6-2.2,6.2-5.3,12.6-10.5,19.1-15.5,7.2-5.6,14.6-11,22.1-16.1,1.3-.9,3.9-3.2,3.4-5.2-.6-2.1-3.9-2.7-5.5-2.8-7.2-.6-15.5,1.6-21.4,5.7-27.6,19-53.3,40.7-76.7,64.6-6.5,6.7-12.9,13.5-19,20.5,9.4-2,18.7-4,28.1-6.1-13.8-10.5-25.9-23.1-35.9-37.4.3.5.6.9.9,1.4-2.2-3.2-4.4-6.6-6.4-10-1.2-2.1-3.2-2.6-5.5-2.8-3.5-.4-7.8.2-11.2,1.2-3.5,1-7.3,2.2-10.3,4.5-1.2.9-4.5,3.4-3.4,5.2h0Z"/>
        <path class="cls-2" d="M233.2,368.3c7.6,19.9,28.4,40.5,51.4,35.7,12.1-2.5,21.6-11.9,27.9-22.2,6.7-10.9,10.1-23.5,11.6-36.1.8-7.4.7-14.6.3-22.1-.5-8-.7-16.5,3.3-23.7.7-1.2-2.4-.9-2.8,0-6.4,11.9-2.4,25.4-3.1,38.2-.6,12.2-2.8,24.5-7.8,35.7-4.8,10.9-13,22.4-24.3,27.2-10.1,4.3-21.2,1.5-30.1-4.2-10.6-6.8-18.9-17.5-23.4-29.2-.4-1-3.4-.1-3,.8h0Z"/>
        <path class="cls-2" d="M244.5,396.1c7.6,22.1,28.4,44.9,51.4,39.7,12.1-2.8,21.6-13.3,27.9-24.6,6.7-12.1,10.1-26.1,11.6-40.1.8-8.2.7-16.3.3-24.5-.5-8.9-.7-18.3,3.3-26.4.7-1.4-2.4-1-2.8,0-6.4,13.2-2.4,28.2-3.1,42.4-.6,13.5-2.8,27.2-7.8,39.7-4.8,12.1-13,24.8-24.3,30.2-10.1,4.8-21.2,1.7-30.1-4.7-10.6-7.5-18.9-19.4-23.4-32.5-.4-1.1-3.4-.1-3,.9h0Z"/>
        <path class="cls-2" d="M187.7,230.5c-3.6-4.4-9.1-7.2-14.8-7.3-3.7,0-7.6,1-10.6,3.1-1.2.8-7.6,7.2-6.1,8.7-5.3-5.4-14.8-4-19.5,1.5-3.1,3.6-3.9,9.4-1.4,13.5-4.7-.3-10.6,1.5-13.5,5.7-3.1,4.3-4.9,9.7-3.4,14.8,1.3,4.5,4.9,8.2,9.3,9.8-6.7,7.9-5.8,21.6,4,26.5,4.5,2.2,12.1,2.4,16.5-.3,4.6-2.9,7.1-8.6,6.2-13.9.6,3.6,9.5,1.5,11.2.6,4.2-2.2,7.1-7,7.8-11.6.4-3,0-11.3-1.9-13.5,5.7,6.2,16,6.8,18.1,7,9.9,1.1,19.1-1.6,25.1-9.6,5.5-7.4,5.5-17.4-.9-24.6-5.6-6.2-15.2-8.4-22.9-5.1-.7-1.9-1.8-3.7-3-5.3Z"/>
      </g>
    </g>
  </g>
</svg>