<?xml version="1.0" encoding="UTF-8"?>
<svg id="Laag_2" xmlns="http://www.w3.org/2000/svg" viewBox="0 0 257.72 277.34">
  <defs>
    <style>
      .cls-1 {
        fill: #fff;
      }

      .cls-2 {
        fill: #21292c;
      }

      .cls-3 {
        fill: #ff0067;
      }
    </style>
  </defs>
  <g id="_x32_">
    <g>
      <path class="cls-1" d="M110.74,266.61c1.78-.77.71-11.1.69-12.76-.2-18.68-3.86-38.97-10.59-56.6-7.22-18.9-15.02-33.61-22.51-51.95-3.82-9.37-4.71-20.75-6.71-30.68-1.89-9.41-2.99-17.69-7.94-26.06-4.72-7.98-13.05-13.12-23.23-11.6-13.64,2.03-21.99,16.61-18.65,39.12.08.55.47,3.14.6,4.03,1.02,6.85,1.36,13.38,2.54,20.2.31,1.8.39,9.69.34,10.37-1.13,13.54-30.43,85.65-23.47,119.79,0,0,62.21,15.94,108.93-3.86Z"/>
      <path class="cls-1" d="M111.74,253.86c-.2-18.68-3.86-38.97-10.59-56.6-6.58-17.23-14.27-32.46-21.14-48.65-3.38,9.96-9.97,13.79-18.22,15.23-12.23,2.13-26.32-1.66-37.35-7.17-5.17,20.8-28.54,83.34-22.32,113.81,0,0,62.21,15.94,108.93-3.86,1.78-.77.71-11.1.69-12.76Z"/>
      <path class="cls-2" d="M26.3,153.08c.41-1.84.36-3.66.33-5.53-.03-2.38,0-4.82-.31-7.19-.54-4.21-1.16-8.4-1.62-12.63-.41-3.76-.91-7.5-1.47-11.24-1.7-11.47-1.47-26.3,8.18-34.5,4.3-3.65,10.08-5.16,15.63-4.07,7.55,1.49,13.63,7.31,17.2,13.89,3.93,7.25,5.21,15.68,6.77,23.68,1.58,8.06,2.39,16.29,4.61,24.22,1.16,4.16,2.89,8.12,4.59,12.09,1.7,3.97,3.46,7.91,5.25,11.85,3.55,7.84,7.18,15.65,10.52,23.59,3.38,8.03,6.48,16.15,8.77,24.57,2.28,8.37,3.9,16.92,4.89,25.54.77,6.7.88,13.41,1.26,20.14.13,2.42.32,4.96-.07,7.36-.06.35-.12.72-.27,1.04-.04.07-.15.26-.01.11-.11.12-.84.34-1.15.47-1.73.71-3.48,1.36-5.24,1.97-13.83,4.77-28.5,6.79-43.08,7.23-12.54.38-25.12-.42-37.55-2.11-6.73-.91-13.46-2.05-20.07-3.61-.24-.06-.47-.11-.71-.17-.17-.04-.42-.11-.03,0,.15.15.3.3.44.45-1.39-6.92-1.2-14.11-.57-21.11.75-8.34,2.24-16.61,4.02-24.79,3.59-16.5,8.46-32.68,13.38-48.82,1.91-6.27,3.92-12.53,5.51-18.89-.61.23-1.22.45-1.83.68,1.56.87,3.05,1.69,4.71,2.34,3.35,1.3,6.77,2.45,10.25,3.37,5.46,1.44,11.08,2.35,16.73,2.25,7.14-.13,14.81-2.01,20.05-7.16,1.82-1.79,3.29-3.95,3.93-6.44.27-1.03-1.84-.81-2.09.13-1.17,4.51-5.52,7.75-9.59,9.51-8.13,3.52-17.67,2.67-26.07.7-5.64-1.33-11.29-3.12-16.36-5.94-.67-.37-1.64-.11-1.83.68-1.39,5.55-3.12,11.02-4.79,16.5-2.31,7.58-4.63,15.17-6.82,22.79-4.77,16.66-9.23,33.64-11.07,50.91-.84,7.87-1.2,16.01.37,23.82.04.19.26.4.44.45,4.86,1.24,9.83,2.14,14.78,2.94,11.78,1.92,23.71,3.01,35.65,3.17,14.87.2,29.89-1.09,44.31-4.88,3.68-.97,7.31-2.11,10.87-3.44.84-.31,1.67-.63,2.5-.96.72-.29,1.59-.51,2.21-.98.65-.49.87-1.32,1.02-2.07.47-2.4.26-4.98.13-7.4-.14-2.58-.22-5.15-.31-7.73-.63-17.57-3.94-35.21-10.07-51.7-6.28-16.89-14.5-32.97-21.47-49.56-1.68-3.99-3.16-7.98-4.17-12.2-1-4.17-1.69-8.41-2.37-12.64-.7-4.35-1.49-8.67-2.34-12.99-.82-4.16-1.67-8.34-2.97-12.38-2.37-7.34-6.51-14.21-13.07-18.51-5.78-3.79-12.95-5.01-19.53-2.68-11.32,4.02-15.86,16.15-16.31,27.28-.3,7.42,1.27,14.68,2.08,22.02.78,7.03,1.98,13.99,2.09,21.07.03,1.91.08,3.78-.33,5.66-.23,1.05,1.88.83,2.09-.13h0Z"/>
      <path class="cls-2" d="M56.66,131c-.03-.11-.06-.22-.09-.32-.19-.66-.36-1.33-.3-2.01.06-.68.38-1.37.97-1.71,1.24-.71,2.86.41,4.2-.07.5-.18.9-.57,1.33-.89.43-.32.97-.57,1.49-.44.74.19,1.06,1.05,1.2,1.8.66,3.57-.24,9.01-5.05,8.61-2.62-.21-3.13-2.75-3.75-4.96Z"/>
      <path class="cls-2" d="M62.56,173.59c9.78,24.58,11.48,51.73,12.51,77.89.28,7.22.48,14.45.74,21.68.03,1,2.1.63,2.07-.19-.92-26.39-1.11-53.14-6.92-79.02-1.6-7.11-3.65-14.13-6.34-20.9-.34-.85-2.38-.26-2.06.55h0Z"/>
      <path class="cls-2" d="M26.31,170.51c6.04,2.21,12.1,4.35,18.08,6.71,2.56,1.01,5.38,2.22,8.17,2.37,2.29.12,3.8-1.73,4.86-3.52,1.04-1.75,1.86-3.63,3.06-5.28.46-.63,1.14-1.63,1.97-1.8,1-.21,2.33.54,3.18.98,1.78.91,3.34,1.98,4.9,3.21,1.31,1.03,2.63,2.02,4.33,1.28,1.76-.77,3.04-2.56,4.12-4.07,1.17-1.65,2.16-3.42,3.36-5.04.78-1.07-1.14-1.51-1.74-.69-.97,1.32-1.79,2.74-2.7,4.09-.95,1.41-2.01,3.16-3.47,4.12-.5.33-.58.29-1.09-.02-.85-.52-1.6-1.21-2.39-1.83-1.42-1.12-3.12-2.05-4.76-2.81-1.7-.79-3.63-1.28-5.33-.23-1.62,1-2.65,2.79-3.57,4.4-.92,1.62-1.65,3.52-2.96,4.89-1.01,1.05-2.24.63-3.52.31-1.39-.35-2.75-.84-4.09-1.36-6.4-2.44-12.82-4.81-19.26-7.17-.94-.35-2.41,1.01-1.17,1.47h0Z"/>
      <path class="cls-2" d="M239.8,101.47c-2.23-2.44-6.06-2.57-9.12-2.21-3.1.37-6.38,1.27-7.22,4.68-.77,3.16,1.09,7.41,4.9,5.9,4.19-1.66,1.88-6.66-.58-8.8-3.07-2.67-7.3-3.21-11.09-1.97-.25.08-.81.34-.59.66.21.31,1.11,0,1.34-.07,3.09-1.01,6.67.34,8.89,2.55,1.2,1.2,2.32,2.92,2.34,4.67.01.84-.51,2.82-1.69,2.03-.77-.51-1.22-1.43-1.45-2.3-.37-1.4-.24-2.97.43-4.26.76-1.47,1.93-1.83,3.46-2.09,2.85-.48,6.36-.36,8.44,1.93.39.43,2.32-.3,1.93-.74h0Z"/>
      <path class="cls-2" d="M254.44,15.75c-3.37.33-5.89,2.51-7.68,5.26-.87,1.34-1.9,3.04-2.04,4.68-.13,1.62.74,3.17,1.92,4.23,1.28,1.16,3,1.8,4.73,1.62,1.44-.16,3.17-.87,3.38-2.49.55-4.08-5.35-4.46-8.03-3.93-3.91.77-7.45,3.35-8.76,7.21-.17.5,1.84.25,2.04-.33,1.03-3.02,3.63-5.6,6.86-6.08,1.71-.26,3.92,0,5.13,1.38.57.65.93,1.7.62,2.54-.37,1-1.16.86-2.02.57-1.53-.52-2.89-1.79-3.5-3.29-.58-1.45-.2-2.75.42-4.11,1.04-2.28,3.24-6.04,6.06-6.31.34-.03,1.22-.13,1.37-.51.14-.36-.12-.46-.51-.43h0Z"/>
      <path class="cls-2" d="M154.29,36.43c-1.7-2.08-2.5-4.87-2.59-7.53-.08-2.44.47-5.43,2.55-6.98,1.14-.84,2.53-.91,3.89-.77,1.93.21,4.16.71,5.48,2.26,1.28,1.51,1.06,4.19-1.31,4.35-2.32.16-4.33-1.93-5.5-3.7-2.79-4.19-2.87-9.9,0-14.05.57-.83-1.51-.73-1.93-.11-3.09,4.47-2.95,10.52.03,15.01,1.41,2.12,3.6,3.97,6.24,4.14,2.04.13,4.51-.85,5.23-2.92.8-2.34-1.26-4.39-3.23-5.24-1.98-.86-4.44-1.29-6.6-1.03-3.53.42-5.97,2.98-6.68,6.39-.77,3.7.11,8.07,2.52,11.02.5.61,2.47-.14,1.9-.84h0Z"/>
      <path class="cls-2" d="M185.57,64.6c3.9-2.18,7.12-6.17,7.72-10.69.18-1.34-.04-3.53-1.58-4.06-1.11-.38-2.56.18-3.43.89-1.91,1.59-2.81,5.04-1.09,7.06,1.38,1.62,3.93,1.67,5.88,1.42,2.06-.26,4.1-1,5.81-2.19,4.35-3.04,5.74-8.89,3.22-13.57-.28-.52-2.23.22-2.06.55,1.71,3.17,1.72,7.12-.18,10.22-.96,1.57-2.42,2.86-4.1,3.6-1.74.77-4.26,1.04-5.92-.09-1.95-1.33-1.73-4.07-.69-5.91.24-.43.57-.73.87-1.11.23-.3.35-.06.05-.16-.48-.16.14.22.15.23,1.15,1.3,1.25,2.82.84,4.51-.95,3.91-3.58,7.27-7.07,9.22-.4.22-.19.39.12.47.45.1,1.08-.18,1.45-.39h0Z"/>
      <path class="cls-2" d="M130.28,69.66c-.41-2.64-1.15-5.2-2.27-7.62-.95-2.06-2.2-4.16-4.17-5.39-2.67-1.68-8.04-1.42-9.08,2.19-.41,1.42.03,3.22,1.31,4.06,1.43.95,3.52.48,4.82-.49,4.06-3.03.58-8.5-2.07-11.19-3.43-3.47-8.14-5.4-13-5.51-.68-.02-2.22.98-.84,1.01,3.28.08,6.5,1.17,9.21,3.01,2.69,1.83,5.3,4.58,6.23,7.76.43,1.46.43,4.32-1.48,4.8-1.37.34-2.18-1.5-2.25-2.6-.1-1.52.86-2.97,2.46-3.05,1.69-.09,3.22.88,4.34,2.07,2.81,2.98,4.13,7.56,4.74,11.51.09.57,2.16.1,2.06-.55h0Z"/>
      <path class="cls-3" d="M119.21,155.92c-1.17-1.41-.8-4.74,1.07-5.37,1.73-.58,4.11.39,5.11,1.92.99,1.51.83,3.8-.78,4.85-1.63,1.07-4.27-.04-5.4-1.4Z"/>
      <path class="cls-2" d="M152.43,73.6c-1.17-1.41-.8-4.74,1.07-5.37,1.73-.58,4.11.39,5.11,1.92.99,1.51.83,3.8-.78,4.85-1.63,1.07-4.27-.04-5.4-1.4Z"/>
      <path class="cls-3" d="M250.93,69.2c-1.17-1.41-.8-4.74,1.07-5.37,1.73-.58,4.11.39,5.11,1.92.99,1.51.83,3.8-.78,4.85-1.63,1.07-4.27-.04-5.4-1.4Z"/>
      <path class="cls-3" d="M75.91,41.33c-1.17-1.41-.8-4.74,1.07-5.37,1.73-.58,4.11.39,5.11,1.92.99,1.51.83,3.8-.78,4.85-1.63,1.07-4.27-.04-5.4-1.4Z"/>
      <path class="cls-2" d="M193.78,127.9c-1.17-1.41-.8-4.74,1.07-5.37,1.73-.58,4.11.39,5.11,1.92.99,1.51.83,3.8-.78,4.85-1.63,1.07-4.27-.04-5.4-1.4Z"/>
      <path class="cls-2" d="M91.18,109.55c-1.17-1.41-.8-4.74,1.07-5.37,1.73-.58,4.11.39,5.11,1.92.99,1.51.83,3.8-.78,4.85-1.63,1.07-4.27-.04-5.4-1.4Z"/>
      <path class="cls-3" d="M195.54,18.07c-1.17-1.41-.8-4.74,1.07-5.37,1.73-.58,4.11.39,5.11,1.92.99,1.51.83,3.8-.78,4.85-1.63,1.07-4.27-.04-5.4-1.4Z"/>
      <path class="cls-2" d="M118.53,5.54c-1.17-1.41-.8-4.74,1.07-5.37,1.73-.58,4.11.39,5.11,1.92.99,1.51.83,3.8-.78,4.85-1.63,1.07-4.27-.04-5.4-1.4Z"/>
      <path class="cls-3" d="M111.3,97.92c7.57,12.79,17.47,24.1,29.31,33.08.85.64,2.08.88,3.1.99,2.06.23,4.18-.09,6.19-.52,1.82-.39,3.56-.94,5.26-1.69,1.58-.7,3.33-1.57,4.5-2.9,7.29-8.32,14.98-16.28,23.04-23.86,2-1.88,4.03-3.74,6.07-5.57,1-.89,2-1.78,3.01-2.66.39-.34,2.09-1.76.35-.31.6-.5,1.17-1.01,1.76-1.51,4.24-3.61,8.56-7.11,12.97-10.51,4.91-3.79,9.92-7.44,15.03-10.95.91-.63,2.66-2.14,2.28-3.53-.37-1.4-2.64-1.83-3.74-1.92-4.89-.41-10.51,1.11-14.55,3.9-18.71,12.89-36.2,27.63-52.1,43.86-4.44,4.53-8.74,9.18-12.92,13.95,6.35-1.37,12.7-2.74,19.05-4.12-9.4-7.13-17.62-15.71-24.35-25.39.21.31.43.62.64.93-1.52-2.2-2.96-4.46-4.33-6.76-.83-1.41-2.15-1.74-3.74-1.92-2.41-.27-5.28.16-7.58.82-2.4.69-4.99,1.53-6.97,3.08-.79.62-3.02,2.29-2.28,3.53h0Z"/>
      <path class="cls-2" d="M85.26,161.51c5.15,13.51,19.28,27.47,34.92,24.26,8.24-1.69,14.69-8.11,18.96-15.06,4.55-7.4,6.88-15.96,7.86-24.53.58-5.03.47-9.94.19-14.99-.31-5.44-.44-11.17,2.21-16.12.45-.83-1.6-.6-1.91-.02-4.32,8.06-1.66,17.26-2.09,25.91-.41,8.27-1.93,16.64-5.29,24.24-3.26,7.39-8.82,15.19-16.49,18.44-6.85,2.91-14.36,1.02-20.42-2.85-7.21-4.6-12.85-11.88-15.88-19.84-.26-.69-2.3-.08-2.06.55h0Z"/>
      <path class="cls-2" d="M92.97,180.39c5.15,15,19.28,30.5,34.92,26.94,8.24-1.88,14.69-9,18.96-16.72,4.55-8.21,6.88-17.72,7.86-27.24.58-5.59.47-11.04.19-16.64-.31-6.05-.44-12.41,2.21-17.9.45-.92-1.6-.66-1.91-.02-4.32,8.95-1.66,19.17-2.09,28.77-.41,9.19-1.93,18.47-5.29,26.92-3.26,8.2-8.82,16.86-16.49,20.48-6.85,3.23-14.36,1.13-20.42-3.16-7.21-5.11-12.85-13.2-15.88-22.03-.26-.77-2.3-.09-2.06.61h0Z"/>
      <path class="cls-2" d="M54.36,67.96c-2.44-2.98-6.2-4.9-10.06-4.92-2.49-.01-5.13.7-7.2,2.09-.84.57-5.17,4.91-4.17,5.93-3.59-3.64-10.02-2.73-13.21,1.01-2.09,2.45-2.63,6.36-.92,9.16-3.16-.23-7.19,1.04-9.19,3.84-2.1,2.93-3.34,6.55-2.28,10.07.91,3.04,3.32,5.58,6.31,6.64-4.52,5.36-3.92,14.69,2.72,17.96,3.06,1.5,8.21,1.65,11.19-.22,3.09-1.94,4.83-5.82,4.21-9.42.41,2.41,6.43,1,7.58.41,2.85-1.49,4.83-4.77,5.27-7.91.28-2.01.06-7.66-1.31-9.14,3.9,4.21,10.84,4.62,12.29,4.78,6.69.72,12.99-1.11,17.05-6.5,3.76-5,3.76-11.79-.63-16.69-3.79-4.23-10.34-5.7-15.57-3.5-.48-1.31-1.19-2.52-2.07-3.6Z"/>
    </g>
  </g>
</svg>