<?xml version="1.0" encoding="UTF-8"?>
<svg id="Laag_2" xmlns="http://www.w3.org/2000/svg" viewBox="0 0 550.08 425.36">
  <defs>
    <style>
      .cls-1 {
        fill: #fff;
      }

      .cls-2 {
        stroke: #000;
        stroke-miterlimit: 10;
        stroke-width: 3px;
      }

      .cls-2, .cls-3 {
        fill: #1c1e21;
      }

      .cls-4 {
        fill: #f33d53;
      }
    </style>
  </defs>
  <g id="Laag_2-2" data-name="Laag_2">
    <path class="cls-2" d="M438.19,423.86c-17.77,0-37.76-5.55-54.99-10.34-2.56-.71-5.07-1.41-7.49-2.07-3.78-1.02-21.38-5.62-43.66-11.43-37.54-9.8-88.95-23.22-121.55-31.89-1.39-.37-2.21-1.79-1.84-3.18.37-1.39,1.79-2.22,3.18-1.84,32.59,8.67,83.99,22.09,121.52,31.89,23.17,6.05,39.9,10.42,43.7,11.45,2.43.66,4.95,1.36,7.52,2.07,25.55,7.1,57.34,15.93,76.94,5.07,27.95-15.49,46.69-66.65,60.38-104.01,2.84-7.75,5.52-15.06,7.95-21.11.57-1.41,1.14-2.83,1.72-4.24,10.25-25.25,19.94-49.1,1.07-71.84-19.3-23.26-55.13-30.28-78.84-34.93-7.36-1.44-15.69-3.08-22.5-7.88-17.21-12.14-7.77-33.86-1.53-48.23.38-.87.74-1.71,1.09-2.53,8.93-20.84,13.1-43.85,12.05-66.54-.47-10.23-3.88-43.76-27.82-45.48-2.55-.18-4.9-.03-6.97.45-20.34,4.75-23.71,34.86-25.73,52.84-1.79,15.95-3.99,27.11-7.36,37.33-4.2,12.73-10.31,23.71-18.69,33.55-24.22,28.45-62.43,43.81-99.73,40.08-1.43-.14-2.47-1.42-2.33-2.85.14-1.43,1.42-2.47,2.85-2.33,35.62,3.57,72.12-11.1,95.25-38.27,16.51-19.39,21.74-40.43,24.84-68.08,1.04-9.26,2.46-21.93,6.49-33.09,4.92-13.63,12.74-21.79,23.22-24.24,2.58-.6,5.45-.8,8.53-.58,28.22,2.02,32.12,39.11,32.64,50.43,1.09,23.47-3.23,47.27-12.47,68.83-.35.82-.72,1.68-1.1,2.55-5.91,13.59-13.99,32.2-.25,41.9,5.9,4.16,13.66,5.69,20.5,7.03,24.43,4.79,61.36,12.04,81.84,36.72,20.86,25.14,10.13,51.56-.25,77.12-.57,1.41-1.15,2.82-1.71,4.23-2.4,5.97-5.07,13.25-7.89,20.96-13.97,38.13-33.1,90.34-62.74,106.77-7.48,4.15-16.35,5.74-25.86,5.74Z"/>
    <path class="cls-4" d="M251.7,125.2c-55.69-13.27-111.38-26.54-167.07-39.81-4.75-1.13-10.24-2.12-14.13.84-4,3.05-4.38,8.82-4.52,13.85-2.28,83.64-33.1,163.53-63.51,241.48,61.21,13.99,122.42,27.99,183.64,41.99,6.08,1.37,34.69-122.44,37.42-133.47,9.56-38.66,18.34-77.51,26.44-116.51.15-.71,1.77-8.35,1.72-8.36Z"/>
    <path class="cls-3" d="M186.39,384.72c-.23,0-.47-.03-.72-.08L2.02,342.65c-.74-.17-1.36-.65-1.72-1.32-.35-.67-.4-1.46-.12-2.16,30.01-76.92,61.04-156.46,63.33-240.61.12-4.44.32-11.86,5.54-15.84,5.18-3.95,12.42-2.23,16.31-1.3l167.07,39.81s0,0,.01,0c2.44.59,1.96,3,1.78,3.9-.11.53-.26,1.27-.42,2.07-.33,1.59-.72,3.46-.96,4.56l-.19.89c-8.25,39.73-17.15,78.96-26.46,116.61-.31,1.25-.95,3.96-1.86,7.78-3.6,15.14-11.09,46.65-18.43,74.52-4.11,15.62-7.59,27.87-10.35,36.41-1.61,4.98-3,8.8-4.15,11.37-.92,2.06-2.41,5.39-5.01,5.39ZM6.12,338.25l179.52,41.04c2.73-4.23,10.66-26.91,33.62-123.47.91-3.84,1.56-6.56,1.87-7.82,9.3-37.59,18.18-76.75,26.42-116.42l.19-.9c.21-1,.68-3.24,1.04-4.98l-164.64-39.23c-4.22-1.01-8.98-1.89-11.95.38-2.99,2.28-3.37,7.1-3.49,11.85-1.03,37.78-8,78.19-21.31,123.54-11.78,40.12-27.35,80.31-41.28,116.01Z"/>
    <path class="cls-1" d="M173.75,333.78c-1.18,10.71-10.5,20.26-21.78,17.58-22.49-5.35-25.05-42.5,2.33-40.62,9.13.63,17.4,7.89,19.2,16.87.41,2.05.48,4.13.25,6.17Z"/>
  </g>
</svg>